solid 31.8mm mount_short_flanged_v2
facet normal -0.0 -0.0 1.0
outer loop
vertex -11.9659258262891 11.7411883831837 1.99999999999999
vertex -11.0 11.0002159741777 1.99999999999999
vertex -12.0 12.0 1.99999999999999
endloop
endfacet
facet normal -0.0 -0.0 1.0
outer loop
vertex -11.0 11.0002159741777 1.99999999999999
vertex -11.9659258262891 11.7411883831837 1.99999999999999
vertex -11.8660254037844 11.5000289816981 1.99999999999999
endloop
endfacet
facet normal -0.0 -0.0 1.0
outer loop
vertex -11.0 11.0002159741777 1.99999999999999
vertex -11.8660254037844 11.5000289816981 1.99999999999999
vertex -11.7071067811865 11.2929565035095 1.99999999999999
endloop
endfacet
facet normal -0.0 -0.0 1.0
outer loop
vertex -11.0 11.0002159741777 1.99999999999999
vertex -11.7071067811865 11.2929565035095 1.99999999999999
vertex -11.5 11.1340825958029 1.99999999999999
endloop
endfacet
facet normal -0.0 -0.0 1.0
outer loop
vertex -11.0 11.0002159741777 1.99999999999999
vertex -11.5 11.1340825958029 1.99999999999999
vertex -11.2588190451025 11.034234252837 1.99999999999999
endloop
endfacet
facet normal -0.0 -0.0 1.0
outer loop
vertex -11.0 18.9997840258223 1.99999999999999
vertex -11.9659258262891 18.2588116168163 1.99999999999999
vertex -12.0 18.0 1.99999999999999
endloop
endfacet
facet normal -0.0 -0.0 1.0
outer loop
vertex -11.9659258262891 18.2588116168163 1.99999999999999
vertex -11.0 18.9997840258223 1.99999999999999
vertex -11.8660254037844 18.4999710183019 1.99999999999999
endloop
endfacet
facet normal -0.0 -0.0 1.0
outer loop
vertex -11.8660254037844 18.4999710183019 1.99999999999999
vertex -11.0 18.9997840258223 1.99999999999999
vertex -11.7071067811865 18.7070434964905 1.99999999999999
endloop
endfacet
facet normal -0.0 -0.0 1.0
outer loop
vertex -11.7071067811865 18.7070434964905 1.99999999999999
vertex -11.0 18.9997840258223 1.99999999999999
vertex -11.5 18.8659174041971 1.99999999999999
endloop
endfacet
facet normal -0.0 -0.0 1.0
outer loop
vertex -11.5 18.8659174041971 1.99999999999999
vertex -11.0 18.9997840258223 1.99999999999999
vertex -11.2588190451025 18.965765747163 1.99999999999999
endloop
endfacet
endsolid 31.8mm mount_short_flanged_v2
