solid MountingPlateTemplate
facet normal 0.0 0.0 -1.0
outer loop
vertex 0.0 30.0 0.0
vertex 3.5511112605664 15.3882285676538 0.0
vertex 0.0 0.0 0.0
endloop
endfacet
facet normal 0.0 0.0 -1.0
outer loop
vertex 3.5511112605664 15.3882285676538 0.0
vertex 0.0 30.0 0.0
vertex 3.70096189432335 15.75 0.0
endloop
endfacet
facet normal 0.0 0.0 -1.0
outer loop
vertex 3.70096189432335 15.75 0.0
vertex 0.0 30.0 0.0
vertex 3.93933982822018 16.0606601717798 0.0
endloop
endfacet
facet normal 0.0 0.0 -1.0
outer loop
vertex 3.93933982822018 16.0606601717798 0.0
vertex 0.0 30.0 0.0
vertex 4.25 16.2990381056767 0.0
endloop
endfacet
facet normal 0.0 0.0 -1.0
outer loop
vertex 4.25 16.2990381056767 0.0
vertex 0.0 30.0 0.0
vertex 4.61177143234622 16.4488887394336 0.0
endloop
endfacet
facet normal 0.0 0.0 -1.0
outer loop
vertex 4.61177143234622 16.4488887394336 0.0
vertex 0.0 30.0 0.0
vertex 54.0 30.0 0.0
endloop
endfacet
facet normal 0.0 0.0 -1.0
outer loop
vertex 0.0 0.0 0.0
vertex 3.5511112605664 15.3882285676538 0.0
vertex 3.5 15.0 0.0
endloop
endfacet
facet normal 0.0 0.0 -1.0
outer loop
vertex 4.61177143234622 16.4488887394336 0.0
vertex 54.0 30.0 0.0
vertex 5.0 16.5 0.0
endloop
endfacet
facet normal 0.0 0.0 -1.0
outer loop
vertex 5.0 16.5 0.0
vertex 54.0 30.0 0.0
vertex 5.38822856765378 16.4488887394336 0.0
endloop
endfacet
facet normal 0.0 0.0 -1.0
outer loop
vertex 5.38822856765378 16.4488887394336 0.0
vertex 54.0 30.0 0.0
vertex 5.75 16.2990381056767 0.0
endloop
endfacet
facet normal 0.0 0.0 -1.0
outer loop
vertex 5.75 16.2990381056767 0.0
vertex 54.0 30.0 0.0
vertex 6.06066017177983 16.0606601717798 0.0
endloop
endfacet
facet normal 0.0 0.0 -1.0
outer loop
vertex 6.06066017177983 16.0606601717798 0.0
vertex 54.0 30.0 0.0
vertex 6.29903810567665 15.75 0.0
endloop
endfacet
facet normal 0.0 0.0 -1.0
outer loop
vertex 6.29903810567665 15.75 0.0
vertex 54.0 30.0 0.0
vertex 6.4488887394336 15.3882285676538 0.0
endloop
endfacet
facet normal 0.0 0.0 -1.0
outer loop
vertex 6.4488887394336 15.3882285676538 0.0
vertex 54.0 30.0 0.0
vertex 6.5 15.0 0.0
endloop
endfacet
facet normal 0.0 0.0 -1.0
outer loop
vertex 6.5 15.0 0.0
vertex 54.0 30.0 0.0
vertex 47.7009618943234 15.75 0.0
endloop
endfacet
facet normal 0.0 0.0 -1.0
outer loop
vertex 6.5 15.0 0.0
vertex 47.7009618943234 15.75 0.0
vertex 47.5511112605665 15.3882285676538 0.0
endloop
endfacet
facet normal 0.0 0.0 -1.0
outer loop
vertex 6.5 15.0 0.0
vertex 47.5511112605665 15.3882285676538 0.0
vertex 47.5 15.0 0.0
endloop
endfacet
facet normal 0.0 0.0 -1.0
outer loop
vertex 47.7009618943234 15.75 0.0
vertex 54.0 30.0 0.0
vertex 47.9393398282202 16.0606601717798 0.0
endloop
endfacet
facet normal 0.0 0.0 -1.0
outer loop
vertex 47.9393398282202 16.0606601717798 0.0
vertex 54.0 30.0 0.0
vertex 48.25 16.2990381056767 0.0
endloop
endfacet
facet normal 0.0 0.0 -1.0
outer loop
vertex 48.25 16.2990381056767 0.0
vertex 54.0 30.0 0.0
vertex 48.6117714323463 16.4488887394336 0.0
endloop
endfacet
facet normal 0.0 0.0 -1.0
outer loop
vertex 48.6117714323463 16.4488887394336 0.0
vertex 54.0 30.0 0.0
vertex 49.0000000000001 16.5 0.0
endloop
endfacet
facet normal 0.0 0.0 -1.0
outer loop
vertex 49.0000000000001 16.5 0.0
vertex 54.0 30.0 0.0
vertex 49.3882285676538 16.4488887394336 0.0
endloop
endfacet
facet normal 0.0 0.0 -1.0
outer loop
vertex 49.3882285676538 16.4488887394336 0.0
vertex 54.0 30.0 0.0
vertex 49.75 16.2990381056767 0.0
endloop
endfacet
facet normal 0.0 0.0 -1.0
outer loop
vertex 49.75 16.2990381056767 0.0
vertex 54.0 30.0 0.0
vertex 50.0606601717799 16.0606601717798 0.0
endloop
endfacet
facet normal 0.0 0.0 -1.0
outer loop
vertex 50.0606601717799 16.0606601717798 0.0
vertex 54.0 30.0 0.0
vertex 50.2990381056767 15.75 0.0
endloop
endfacet
facet normal 0.0 0.0 -1.0
outer loop
vertex 50.2990381056767 15.75 0.0
vertex 54.0 30.0 0.0
vertex 50.4488887394337 15.3882285676538 0.0
endloop
endfacet
facet normal 0.0 0.0 -1.0
outer loop
vertex 50.4488887394337 15.3882285676538 0.0
vertex 54.0 30.0 0.0
vertex 50.5 15.0 0.0
endloop
endfacet
facet normal 0.0 0.0 -1.0
outer loop
vertex 0.0 0.0 0.0
vertex 4.61177143234622 13.5511112605664 0.0
vertex 54.0 0.0 0.0
endloop
endfacet
facet normal 0.0 0.0 -1.0
outer loop
vertex 4.61177143234622 13.5511112605664 0.0
vertex 0.0 0.0 0.0
vertex 4.25 13.7009618943233 0.0
endloop
endfacet
facet normal 0.0 0.0 -1.0
outer loop
vertex 4.25 13.7009618943233 0.0
vertex 0.0 0.0 0.0
vertex 3.93933982822018 13.9393398282202 0.0
endloop
endfacet
facet normal 0.0 0.0 -1.0
outer loop
vertex 3.93933982822018 13.9393398282202 0.0
vertex 0.0 0.0 0.0
vertex 3.70096189432335 14.25 0.0
endloop
endfacet
facet normal 0.0 0.0 -1.0
outer loop
vertex 3.70096189432335 14.25 0.0
vertex 0.0 0.0 0.0
vertex 3.5511112605664 14.6117714323462 0.0
endloop
endfacet
facet normal 0.0 0.0 -1.0
outer loop
vertex 3.5511112605664 14.6117714323462 0.0
vertex 0.0 0.0 0.0
vertex 3.5 15.0 0.0
endloop
endfacet
facet normal 0.0 0.0 -1.0
outer loop
vertex 54.0 0.0 0.0
vertex 4.61177143234622 13.5511112605664 0.0
vertex 5.0 13.5 0.0
endloop
endfacet
facet normal 0.0 0.0 -1.0
outer loop
vertex 54.0 0.0 0.0
vertex 5.0 13.5 0.0
vertex 5.38822856765378 13.5511112605664 0.0
endloop
endfacet
facet normal 0.0 0.0 -1.0
outer loop
vertex 54.0 0.0 0.0
vertex 5.38822856765378 13.5511112605664 0.0
vertex 5.75 13.7009618943233 0.0
endloop
endfacet
facet normal 0.0 0.0 -1.0
outer loop
vertex 54.0 0.0 0.0
vertex 5.75 13.7009618943233 0.0
vertex 6.06066017177983 13.9393398282202 0.0
endloop
endfacet
facet normal 0.0 0.0 -1.0
outer loop
vertex 54.0 0.0 0.0
vertex 6.06066017177983 13.9393398282202 0.0
vertex 6.29903810567665 14.25 0.0
endloop
endfacet
facet normal 0.0 0.0 -1.0
outer loop
vertex 54.0 0.0 0.0
vertex 6.29903810567665 14.25 0.0
vertex 6.4488887394336 14.6117714323462 0.0
endloop
endfacet
facet normal 0.0 0.0 -1.0
outer loop
vertex 54.0 0.0 0.0
vertex 6.4488887394336 14.6117714323462 0.0
vertex 6.5 15.0 0.0
endloop
endfacet
facet normal 0.0 0.0 -1.0
outer loop
vertex 54.0 0.0 0.0
vertex 6.5 15.0 0.0
vertex 47.7009618943234 14.25 0.0
endloop
endfacet
facet normal 0.0 0.0 -1.0
outer loop
vertex 47.7009618943234 14.25 0.0
vertex 6.5 15.0 0.0
vertex 47.5511112605665 14.6117714323462 0.0
endloop
endfacet
facet normal 0.0 0.0 -1.0
outer loop
vertex 47.5511112605665 14.6117714323462 0.0
vertex 6.5 15.0 0.0
vertex 47.5 15.0 0.0
endloop
endfacet
facet normal 0.0 0.0 -1.0
outer loop
vertex 54.0 0.0 0.0
vertex 47.7009618943234 14.25 0.0
vertex 47.9393398282202 13.9393398282202 0.0
endloop
endfacet
facet normal 0.0 0.0 -1.0
outer loop
vertex 54.0 0.0 0.0
vertex 47.9393398282202 13.9393398282202 0.0
vertex 48.25 13.7009618943233 0.0
endloop
endfacet
facet normal 0.0 0.0 -1.0
outer loop
vertex 54.0 0.0 0.0
vertex 48.25 13.7009618943233 0.0
vertex 48.6117714323463 13.5511112605664 0.0
endloop
endfacet
facet normal 0.0 0.0 -1.0
outer loop
vertex 54.0 0.0 0.0
vertex 48.6117714323463 13.5511112605664 0.0
vertex 49.0000000000001 13.5 0.0
endloop
endfacet
facet normal 0.0 0.0 -1.0
outer loop
vertex 54.0 0.0 0.0
vertex 49.0000000000001 13.5 0.0
vertex 49.3882285676538 13.5511112605664 0.0
endloop
endfacet
facet normal 0.0 0.0 -1.0
outer loop
vertex 54.0 0.0 0.0
vertex 49.3882285676538 13.5511112605664 0.0
vertex 49.7500000000001 13.7009618943233 0.0
endloop
endfacet
facet normal 0.0 0.0 -1.0
outer loop
vertex 54.0 0.0 0.0
vertex 49.7500000000001 13.7009618943233 0.0
vertex 50.0606601717799 13.9393398282202 0.0
endloop
endfacet
facet normal 0.0 0.0 -1.0
outer loop
vertex 54.0 0.0 0.0
vertex 50.0606601717799 13.9393398282202 0.0
vertex 50.2990381056767 14.25 0.0
endloop
endfacet
facet normal 0.0 0.0 -1.0
outer loop
vertex 54.0 0.0 0.0
vertex 50.2990381056767 14.25 0.0
vertex 50.4488887394337 14.6117714323462 0.0
endloop
endfacet
facet normal 0.0 0.0 -1.0
outer loop
vertex 54.0 0.0 0.0
vertex 50.4488887394337 14.6117714323462 0.0
vertex 50.5 15.0 0.0
endloop
endfacet
facet normal 0.0 0.0 -1.0
outer loop
vertex 54.0 0.0 0.0
vertex 50.5 15.0 0.0
vertex 54.0 30.0 0.0
endloop
endfacet
facet normal -0.0 -0.0 1.0
outer loop
vertex 3.5 15.0 3.0
vertex 0.0 30.0 3.0
vertex 0.0 15.0 3.0
endloop
endfacet
facet normal -0.0 -0.0 1.0
outer loop
vertex 0.0 30.0 3.0
vertex 3.5 15.0 3.0
vertex 5.00000000000001 30.0 3.0
endloop
endfacet
facet normal -0.0 -0.0 1.0
outer loop
vertex 5.00000000000001 30.0 3.0
vertex 3.5 15.0 3.0
vertex 3.5511112605664 15.3882285676538 3.0
endloop
endfacet
facet normal -0.0 -0.0 1.0
outer loop
vertex 5.00000000000001 30.0 3.0
vertex 3.5511112605664 15.3882285676538 3.0
vertex 3.70096189432335 15.75 3.0
endloop
endfacet
facet normal -0.0 -0.0 1.0
outer loop
vertex 5.00000000000001 30.0 3.0
vertex 3.70096189432335 15.75 3.0
vertex 3.93933982822018 16.0606601717798 3.0
endloop
endfacet
facet normal -0.0 -0.0 1.0
outer loop
vertex 5.00000000000001 30.0 3.0
vertex 3.93933982822018 16.0606601717798 3.0
vertex 4.25 16.2990381056767 3.0
endloop
endfacet
facet normal -0.0 -0.0 1.0
outer loop
vertex 5.00000000000001 30.0 3.0
vertex 4.25 16.2990381056767 3.0
vertex 4.61177143234622 16.4488887394336 3.0
endloop
endfacet
facet normal -0.0 -0.0 1.0
outer loop
vertex 5.00000000000001 30.0 3.0
vertex 4.61177143234622 16.4488887394336 3.0
vertex 5.0 16.5 3.0
endloop
endfacet
facet normal -1.57437431259975e-17 -1.0 -2.35188335338261e-16
outer loop
vertex 54.0 0.0 3.0
vertex 0.0 0.0 0.0
vertex 54.0 0.0 0.0
endloop
endfacet
facet normal -1.57437431259975e-17 -1.0 -2.35188335338261e-16
outer loop
vertex 0.0 0.0 0.0
vertex 54.0 0.0 3.0
vertex 0.0 0.0 3.0
endloop
endfacet
facet normal -1.57437431259975e-17 -1.0 -2.35188335338261e-16
outer loop
vertex 0.0 0.0 3.0
vertex 54.0 0.0 3.0
vertex 49.0257148831009 -2.8199664825479e-15 3.0
endloop
endfacet
facet normal -1.57437431259975e-17 -1.0 -2.35188335338261e-16
outer loop
vertex 0.0 0.0 3.0
vertex 49.0257148831009 -2.8199664825479e-15 3.0
vertex 10.0 -2.64371857738865e-16 3.0
endloop
endfacet
facet normal -1.57437431259975e-17 -1.0 -2.35188335338261e-16
outer loop
vertex 0.0 0.0 3.0
vertex 10.0 -2.64371857738865e-16 3.0
vertex 5.0 -1.76247905159244e-16 3.0
endloop
endfacet
facet normal -1.0 0.0 0.0
outer loop
vertex 0.0 15.0 3.0
vertex 0.0 0.0 0.0
vertex 0.0 0.0 3.0
endloop
endfacet
facet normal -1.0 0.0 0.0
outer loop
vertex 0.0 0.0 0.0
vertex 0.0 15.0 3.0
vertex 0.0 30.0 0.0
endloop
endfacet
facet normal -1.0 0.0 0.0
outer loop
vertex 0.0 30.0 0.0
vertex 0.0 15.0 3.0
vertex 0.0 30.0 3.0
endloop
endfacet
facet normal -0.0 1.0 -0.0
outer loop
vertex 0.0 30.0 3.0
vertex 54.0 30.0 0.0
vertex 0.0 30.0 0.0
endloop
endfacet
facet normal -0.0 1.0 -0.0
outer loop
vertex 54.0 30.0 0.0
vertex 0.0 30.0 3.0
vertex 54.0 30.0 3.0
endloop
endfacet
facet normal -0.0 1.0 -0.0
outer loop
vertex 54.0 30.0 3.0
vertex 0.0 30.0 3.0
vertex 5.00000000000001 30.0 3.0
endloop
endfacet
facet normal -0.0 1.0 -0.0
outer loop
vertex 54.0 30.0 3.0
vertex 5.00000000000001 30.0 3.0
vertex 10.0 30.0 3.0
endloop
endfacet
facet normal -0.0 1.0 -0.0
outer loop
vertex 54.0 30.0 3.0
vertex 10.0 30.0 3.0
vertex 48.9742851168992 30.0 3.0
endloop
endfacet
facet normal 1.0 -0.0 -0.0
outer loop
vertex 54.0 30.0 0.0
vertex 54.0 0.0 3.0
vertex 54.0 0.0 0.0
endloop
endfacet
facet normal 1.0 -0.0 -0.0
outer loop
vertex 54.0 0.0 3.0
vertex 54.0 30.0 0.0
vertex 54.0 15.0 3.0
endloop
endfacet
facet normal 1.0 -0.0 -0.0
outer loop
vertex 54.0 15.0 3.0
vertex 54.0 30.0 0.0
vertex 54.0 30.0 3.0
endloop
endfacet
facet normal -0.0 -0.0 1.0
outer loop
vertex 49.0124301723538 6.97431111713802 3.0
vertex 49.3882285676538 13.5511112605664 3.0
vertex 49.0000000000001 13.5 3.0
endloop
endfacet
facet normal -0.0 -0.0 1.0
outer loop
vertex 49.3882285676538 13.5511112605664 3.0
vertex 49.0124301723538 6.97431111713802 3.0
vertex 49.0177636102383 4.17432127630334 3.0
endloop
endfacet
facet normal -0.0 -0.0 1.0
outer loop
vertex 49.3882285676538 13.5511112605664 3.0
vertex 49.0177636102383 4.17432127630334 3.0
vertex 49.0257148831009 -2.8199664825479e-15 3.0
endloop
endfacet
facet normal -0.0 -0.0 1.0
outer loop
vertex 49.3882285676538 13.5511112605664 3.0
vertex 49.0257148831009 -2.8199664825479e-15 3.0
vertex 54.0 0.0 3.0
endloop
endfacet
facet normal -0.0 -0.0 1.0
outer loop
vertex 49.3882285676538 13.5511112605664 3.0
vertex 54.0 0.0 3.0
vertex 49.7500000000001 13.7009618943233 3.0
endloop
endfacet
facet normal -0.0 -0.0 1.0
outer loop
vertex 49.7500000000001 13.7009618943233 3.0
vertex 54.0 0.0 3.0
vertex 50.0606601717799 13.9393398282202 3.0
endloop
endfacet
facet normal -0.0 -0.0 1.0
outer loop
vertex 50.0606601717799 13.9393398282202 3.0
vertex 54.0 0.0 3.0
vertex 50.2990381056767 14.25 3.0
endloop
endfacet
facet normal -0.0 -0.0 1.0
outer loop
vertex 50.2990381056767 14.25 3.0
vertex 54.0 0.0 3.0
vertex 50.4488887394337 14.6117714323462 3.0
endloop
endfacet
facet normal -0.0 -0.0 1.0
outer loop
vertex 50.4488887394337 14.6117714323462 3.0
vertex 54.0 0.0 3.0
vertex 50.5 15.0 3.0
endloop
endfacet
facet normal -0.0 -0.0 1.0
outer loop
vertex 50.5 15.0 3.0
vertex 54.0 0.0 3.0
vertex 54.0 15.0 3.0
endloop
endfacet
facet normal -0.0 -0.0 1.0
outer loop
vertex 49.0124301723538 6.97431111713802 3.0
vertex 10.0 15.0 3.0
vertex 10.0 6.9 3.0
endloop
endfacet
facet normal -0.0 -0.0 1.0
outer loop
vertex 10.0 15.0 3.0
vertex 49.0124301723538 6.97431111713802 3.0
vertex 47.5511112605665 14.6117714323462 3.0
endloop
endfacet
facet normal -0.0 -0.0 1.0
outer loop
vertex 10.0 15.0 3.0
vertex 47.5511112605665 14.6117714323462 3.0
vertex 47.5 15.0 3.0
endloop
endfacet
facet normal -0.0 -0.0 1.0
outer loop
vertex 47.5511112605665 14.6117714323462 3.0
vertex 49.0124301723538 6.97431111713802 3.0
vertex 47.7009618943234 14.25 3.0
endloop
endfacet
facet normal -0.0 -0.0 1.0
outer loop
vertex 47.7009618943234 14.25 3.0
vertex 49.0124301723538 6.97431111713802 3.0
vertex 47.9393398282202 13.9393398282202 3.0
endloop
endfacet
facet normal -0.0 -0.0 1.0
outer loop
vertex 47.9393398282202 13.9393398282202 3.0
vertex 49.0124301723538 6.97431111713802 3.0
vertex 48.25 13.7009618943233 3.0
endloop
endfacet
facet normal -0.0 -0.0 1.0
outer loop
vertex 48.25 13.7009618943233 3.0
vertex 49.0124301723538 6.97431111713802 3.0
vertex 48.6117714323463 13.5511112605664 3.0
endloop
endfacet
facet normal -0.0 -0.0 1.0
outer loop
vertex 48.6117714323463 13.5511112605664 3.0
vertex 49.0124301723538 6.97431111713802 3.0
vertex 49.0000000000001 13.5 3.0
endloop
endfacet
facet normal -0.0 -0.0 1.0
outer loop
vertex 48.9820948221372 25.9 3.0
vertex 54.0 30.0 3.0
vertex 48.9742851168992 30.0 3.0
endloop
endfacet
facet normal -0.0 -0.0 1.0
outer loop
vertex 54.0 30.0 3.0
vertex 48.9820948221372 25.9 3.0
vertex 48.9872868223269 23.1742632239301 3.0
endloop
endfacet
facet normal -0.0 -0.0 1.0
outer loop
vertex 54.0 30.0 3.0
vertex 48.9872868223269 23.1742632239301 3.0
vertex 49.0000000000001 16.5 3.0
endloop
endfacet
facet normal -0.0 -0.0 1.0
outer loop
vertex 54.0 30.0 3.0
vertex 49.0000000000001 16.5 3.0
vertex 49.3882285676538 16.4488887394336 3.0
endloop
endfacet
facet normal -0.0 -0.0 1.0
outer loop
vertex 54.0 30.0 3.0
vertex 49.3882285676538 16.4488887394336 3.0
vertex 49.75 16.2990381056767 3.0
endloop
endfacet
facet normal -0.0 -0.0 1.0
outer loop
vertex 54.0 30.0 3.0
vertex 49.75 16.2990381056767 3.0
vertex 50.0606601717799 16.0606601717798 3.0
endloop
endfacet
facet normal -0.0 -0.0 1.0
outer loop
vertex 54.0 30.0 3.0
vertex 50.0606601717799 16.0606601717798 3.0
vertex 50.2990381056767 15.75 3.0
endloop
endfacet
facet normal -0.0 -0.0 1.0
outer loop
vertex 54.0 30.0 3.0
vertex 50.2990381056767 15.75 3.0
vertex 50.4488887394337 15.3882285676538 3.0
endloop
endfacet
facet normal -0.0 -0.0 1.0
outer loop
vertex 54.0 30.0 3.0
vertex 50.4488887394337 15.3882285676538 3.0
vertex 50.5 15.0 3.0
endloop
endfacet
facet normal -0.0 -0.0 1.0
outer loop
vertex 54.0 30.0 3.0
vertex 50.5 15.0 3.0
vertex 54.0 15.0 3.0
endloop
endfacet
facet normal -0.0 -0.0 1.0
outer loop
vertex 5.0 -1.76247905159244e-16 3.0
vertex 0.0 15.0 3.0
vertex 0.0 0.0 3.0
endloop
endfacet
facet normal -0.0 -0.0 1.0
outer loop
vertex 0.0 15.0 3.0
vertex 5.0 -1.76247905159244e-16 3.0
vertex 3.5 15.0 3.0
endloop
endfacet
facet normal -0.0 -0.0 1.0
outer loop
vertex 3.5 15.0 3.0
vertex 5.0 -1.76247905159244e-16 3.0
vertex 3.5511112605664 14.6117714323462 3.0
endloop
endfacet
facet normal -0.0 -0.0 1.0
outer loop
vertex 3.5511112605664 14.6117714323462 3.0
vertex 5.0 -1.76247905159244e-16 3.0
vertex 3.70096189432335 14.25 3.0
endloop
endfacet
facet normal -0.0 -0.0 1.0
outer loop
vertex 3.70096189432335 14.25 3.0
vertex 5.0 -1.76247905159244e-16 3.0
vertex 3.93933982822018 13.9393398282202 3.0
endloop
endfacet
facet normal -0.0 -0.0 1.0
outer loop
vertex 3.93933982822018 13.9393398282202 3.0
vertex 5.0 -1.76247905159244e-16 3.0
vertex 4.25 13.7009618943233 3.0
endloop
endfacet
facet normal -0.0 -0.0 1.0
outer loop
vertex 4.25 13.7009618943233 3.0
vertex 5.0 -1.76247905159244e-16 3.0
vertex 4.61177143234622 13.5511112605664 3.0
endloop
endfacet
facet normal -0.0 -0.0 1.0
outer loop
vertex 4.61177143234622 13.5511112605664 3.0
vertex 5.0 -1.76247905159244e-16 3.0
vertex 5.0 13.5 3.0
endloop
endfacet
facet normal -0.0 -0.0 1.0
outer loop
vertex 5.38822856765378 16.4488887394336 3.0
vertex 5.00000000000001 30.0 3.0
vertex 5.0 16.5 3.0
endloop
endfacet
facet normal -0.0 -0.0 1.0
outer loop
vertex 5.00000000000001 30.0 3.0
vertex 5.38822856765378 16.4488887394336 3.0
vertex 10.0 30.0 3.0
endloop
endfacet
facet normal -0.0 -0.0 1.0
outer loop
vertex 10.0 30.0 3.0
vertex 5.38822856765378 16.4488887394336 3.0
vertex 5.75 16.2990381056767 3.0
endloop
endfacet
facet normal -0.0 -0.0 1.0
outer loop
vertex 10.0 30.0 3.0
vertex 5.75 16.2990381056767 3.0
vertex 6.06066017177983 16.0606601717798 3.0
endloop
endfacet
facet normal -0.0 -0.0 1.0
outer loop
vertex 10.0 30.0 3.0
vertex 6.06066017177983 16.0606601717798 3.0
vertex 6.29903810567665 15.75 3.0
endloop
endfacet
facet normal -0.0 -0.0 1.0
outer loop
vertex 10.0 30.0 3.0
vertex 6.29903810567665 15.75 3.0
vertex 6.4488887394336 15.3882285676538 3.0
endloop
endfacet
facet normal -0.0 -0.0 1.0
outer loop
vertex 10.0 30.0 3.0
vertex 6.4488887394336 15.3882285676538 3.0
vertex 6.5 15.0 3.0
endloop
endfacet
facet normal -0.0 -0.0 1.0
outer loop
vertex 10.0 30.0 3.0
vertex 6.5 15.0 3.0
vertex 10.0 15.0 3.0
endloop
endfacet
facet normal -0.0 -0.0 1.0
outer loop
vertex 10.0 30.0 3.0
vertex 10.0 15.0 3.0
vertex 10.0 23.1 3.0
endloop
endfacet
facet normal -0.0 -0.0 1.0
outer loop
vertex 10.0 30.0 3.0
vertex 10.0 23.1 3.0
vertex 10.0 25.9 3.0
endloop
endfacet
facet normal -0.991444861373811 0.130526192220045 0.0
outer loop
vertex 6.5 15.0 3.0
vertex 6.4488887394336 14.6117714323462 0.0
vertex 6.4488887394336 14.6117714323462 3.0
endloop
endfacet
facet normal -0.965925826289067 0.258819045102527 0.0
outer loop
vertex 6.4488887394336 14.6117714323462 0.0
vertex 6.5 15.0 3.0
vertex 6.5 15.0 0.0
endloop
endfacet
facet normal -0.965925826289067 -0.258819045102527 0.0
outer loop
vertex 6.4488887394336 15.3882285676538 3.0
vertex 6.5 15.0 0.0
vertex 6.5 15.0 3.0
endloop
endfacet
facet normal -0.991444861373811 -0.130526192220045 0.0
outer loop
vertex 6.5 15.0 0.0
vertex 6.4488887394336 15.3882285676538 3.0
vertex 6.4488887394336 15.3882285676538 0.0
endloop
endfacet
facet normal -0.866025403784438 -0.500000000000001 0.0
outer loop
vertex 6.29903810567665 15.75 3.0
vertex 6.4488887394336 15.3882285676538 0.0
vertex 6.4488887394336 15.3882285676538 3.0
endloop
endfacet
facet normal -0.965925826289067 -0.258819045102527 0.0
outer loop
vertex 6.4488887394336 15.3882285676538 0.0
vertex 6.29903810567665 15.75 3.0
vertex 6.29903810567665 15.75 0.0
endloop
endfacet
facet normal -0.707106781186552 -0.707106781186543 0.0
outer loop
vertex 6.06066017177983 16.0606601717798 3.0
vertex 6.29903810567665 15.75 0.0
vertex 6.29903810567665 15.75 3.0
endloop
endfacet
facet normal -0.866025403784438 -0.500000000000001 0.0
outer loop
vertex 6.29903810567665 15.75 0.0
vertex 6.06066017177983 16.0606601717798 3.0
vertex 6.06066017177983 16.0606601717798 0.0
endloop
endfacet
facet normal -0.707106781186552 -0.707106781186543 0.0
outer loop
vertex 6.06066017177983 16.0606601717798 3.0
vertex 5.75 16.2990381056767 0.0
vertex 6.06066017177983 16.0606601717798 0.0
endloop
endfacet
facet normal -0.499999999999997 -0.86602540378444 0.0
outer loop
vertex 5.75 16.2990381056767 0.0
vertex 6.06066017177983 16.0606601717798 3.0
vertex 5.75 16.2990381056767 3.0
endloop
endfacet
facet normal -0.499999999999997 -0.86602540378444 0.0
outer loop
vertex 5.75 16.2990381056767 3.0
vertex 5.38822856765378 16.4488887394336 0.0
vertex 5.75 16.2990381056767 0.0
endloop
endfacet
facet normal -0.25881904510252 -0.965925826289069 0.0
outer loop
vertex 5.38822856765378 16.4488887394336 0.0
vertex 5.75 16.2990381056767 3.0
vertex 5.38822856765378 16.4488887394336 3.0
endloop
endfacet
facet normal -0.25881904510252 -0.965925826289069 0.0
outer loop
vertex 5.38822856765378 16.4488887394336 3.0
vertex 5.0 16.5 0.0
vertex 5.38822856765378 16.4488887394336 0.0
endloop
endfacet
facet normal -0.130526192220053 -0.99144486137381 0.0
outer loop
vertex 5.0 16.5 0.0
vertex 5.38822856765378 16.4488887394336 3.0
vertex 5.0 16.5 3.0
endloop
endfacet
facet normal 0.130526192220053 -0.99144486137381 0.0
outer loop
vertex 5.0 16.5 3.0
vertex 4.61177143234622 16.4488887394336 0.0
vertex 5.0 16.5 0.0
endloop
endfacet
facet normal 0.25881904510252 -0.965925826289069 0.0
outer loop
vertex 4.61177143234622 16.4488887394336 0.0
vertex 5.0 16.5 3.0
vertex 4.61177143234622 16.4488887394336 3.0
endloop
endfacet
facet normal 0.25881904510252 -0.965925826289069 0.0
outer loop
vertex 4.61177143234622 16.4488887394336 3.0
vertex 4.25 16.2990381056767 0.0
vertex 4.61177143234622 16.4488887394336 0.0
endloop
endfacet
facet normal 0.499999999999997 -0.86602540378444 0.0
outer loop
vertex 4.25 16.2990381056767 0.0
vertex 4.61177143234622 16.4488887394336 3.0
vertex 4.25 16.2990381056767 3.0
endloop
endfacet
facet normal 0.499999999999997 -0.86602540378444 0.0
outer loop
vertex 4.25 16.2990381056767 3.0
vertex 3.93933982822018 16.0606601717798 0.0
vertex 4.25 16.2990381056767 0.0
endloop
endfacet
facet normal 0.707106781186552 -0.707106781186543 0.0
outer loop
vertex 3.93933982822018 16.0606601717798 0.0
vertex 4.25 16.2990381056767 3.0
vertex 3.93933982822018 16.0606601717798 3.0
endloop
endfacet
facet normal 0.707106781186552 -0.707106781186543 0.0
outer loop
vertex 3.93933982822018 16.0606601717798 0.0
vertex 3.70096189432335 15.75 3.0
vertex 3.70096189432335 15.75 0.0
endloop
endfacet
facet normal 0.866025403784439 -0.499999999999999 0.0
outer loop
vertex 3.70096189432335 15.75 3.0
vertex 3.93933982822018 16.0606601717798 0.0
vertex 3.93933982822018 16.0606601717798 3.0
endloop
endfacet
facet normal 0.866025403784439 -0.499999999999999 0.0
outer loop
vertex 3.70096189432335 15.75 0.0
vertex 3.5511112605664 15.3882285676538 3.0
vertex 3.5511112605664 15.3882285676538 0.0
endloop
endfacet
facet normal 0.965925826289067 -0.258819045102526 0.0
outer loop
vertex 3.5511112605664 15.3882285676538 3.0
vertex 3.70096189432335 15.75 0.0
vertex 3.70096189432335 15.75 3.0
endloop
endfacet
facet normal 0.965925826289067 -0.258819045102526 0.0
outer loop
vertex 3.5511112605664 15.3882285676538 0.0
vertex 3.5 15.0 3.0
vertex 3.5 15.0 0.0
endloop
endfacet
facet normal 0.991444861373811 -0.130526192220045 -0.0
outer loop
vertex 3.5 15.0 3.0
vertex 3.5511112605664 15.3882285676538 0.0
vertex 3.5511112605664 15.3882285676538 3.0
endloop
endfacet
facet normal 0.991444861373811 0.130526192220045 -0.0
outer loop
vertex 3.5 15.0 0.0
vertex 3.5511112605664 14.6117714323462 3.0
vertex 3.5511112605664 14.6117714323462 0.0
endloop
endfacet
facet normal 0.965925826289067 0.258819045102527 0.0
outer loop
vertex 3.5511112605664 14.6117714323462 3.0
vertex 3.5 15.0 0.0
vertex 3.5 15.0 3.0
endloop
endfacet
facet normal 0.965925826289067 0.258819045102527 0.0
outer loop
vertex 3.5511112605664 14.6117714323462 0.0
vertex 3.70096189432335 14.25 3.0
vertex 3.70096189432335 14.25 0.0
endloop
endfacet
facet normal 0.866025403784438 0.500000000000001 0.0
outer loop
vertex 3.70096189432335 14.25 3.0
vertex 3.5511112605664 14.6117714323462 0.0
vertex 3.5511112605664 14.6117714323462 3.0
endloop
endfacet
facet normal 0.866025403784438 0.500000000000001 0.0
outer loop
vertex 3.70096189432335 14.25 0.0
vertex 3.93933982822018 13.9393398282202 3.0
vertex 3.93933982822018 13.9393398282202 0.0
endloop
endfacet
facet normal 0.707106781186552 0.707106781186543 0.0
outer loop
vertex 3.93933982822018 13.9393398282202 3.0
vertex 3.70096189432335 14.25 0.0
vertex 3.70096189432335 14.25 3.0
endloop
endfacet
facet normal 0.707106781186552 0.707106781186543 0.0
outer loop
vertex 3.93933982822018 13.9393398282202 3.0
vertex 4.25 13.7009618943233 0.0
vertex 3.93933982822018 13.9393398282202 0.0
endloop
endfacet
facet normal 0.499999999999997 0.86602540378444 0.0
outer loop
vertex 4.25 13.7009618943233 0.0
vertex 3.93933982822018 13.9393398282202 3.0
vertex 4.25 13.7009618943233 3.0
endloop
endfacet
facet normal 0.499999999999997 0.86602540378444 0.0
outer loop
vertex 4.25 13.7009618943233 3.0
vertex 4.61177143234622 13.5511112605664 0.0
vertex 4.25 13.7009618943233 0.0
endloop
endfacet
facet normal 0.25881904510252 0.965925826289069 0.0
outer loop
vertex 4.61177143234622 13.5511112605664 0.0
vertex 4.25 13.7009618943233 3.0
vertex 4.61177143234622 13.5511112605664 3.0
endloop
endfacet
facet normal 0.25881904510252 0.965925826289069 0.0
outer loop
vertex 4.61177143234622 13.5511112605664 3.0
vertex 5.0 13.5 0.0
vertex 4.61177143234622 13.5511112605664 0.0
endloop
endfacet
facet normal 0.130526192220053 0.99144486137381 -0.0
outer loop
vertex 5.0 13.5 0.0
vertex 4.61177143234622 13.5511112605664 3.0
vertex 5.0 13.5 3.0
endloop
endfacet
facet normal -0.130526192220053 0.99144486137381 -0.0
outer loop
vertex 5.0 13.5 3.0
vertex 5.38822856765378 13.5511112605664 0.0
vertex 5.0 13.5 0.0
endloop
endfacet
facet normal -0.25881904510252 0.965925826289069 0.0
outer loop
vertex 5.38822856765378 13.5511112605664 0.0
vertex 5.0 13.5 3.0
vertex 5.38822856765378 13.5511112605664 3.0
endloop
endfacet
facet normal -0.25881904510252 0.965925826289069 0.0
outer loop
vertex 5.38822856765378 13.5511112605664 3.0
vertex 5.75 13.7009618943233 0.0
vertex 5.38822856765378 13.5511112605664 0.0
endloop
endfacet
facet normal -0.499999999999997 0.86602540378444 0.0
outer loop
vertex 5.75 13.7009618943233 0.0
vertex 5.38822856765378 13.5511112605664 3.0
vertex 5.75 13.7009618943233 3.0
endloop
endfacet
facet normal -0.499999999999997 0.86602540378444 0.0
outer loop
vertex 5.75 13.7009618943233 3.0
vertex 6.06066017177983 13.9393398282202 0.0
vertex 5.75 13.7009618943233 0.0
endloop
endfacet
facet normal -0.707106781186552 0.707106781186543 0.0
outer loop
vertex 6.06066017177983 13.9393398282202 0.0
vertex 5.75 13.7009618943233 3.0
vertex 6.06066017177983 13.9393398282202 3.0
endloop
endfacet
facet normal -0.866025403784438 0.500000000000001 0.0
outer loop
vertex 6.29903810567665 14.25 3.0
vertex 6.06066017177983 13.9393398282202 0.0
vertex 6.06066017177983 13.9393398282202 3.0
endloop
endfacet
facet normal -0.707106781186552 0.707106781186543 0.0
outer loop
vertex 6.06066017177983 13.9393398282202 0.0
vertex 6.29903810567665 14.25 3.0
vertex 6.29903810567665 14.25 0.0
endloop
endfacet
facet normal -0.965925826289067 0.258819045102527 0.0
outer loop
vertex 6.4488887394336 14.6117714323462 3.0
vertex 6.29903810567665 14.25 0.0
vertex 6.29903810567665 14.25 3.0
endloop
endfacet
facet normal -0.866025403784438 0.500000000000001 0.0
outer loop
vertex 6.29903810567665 14.25 0.0
vertex 6.4488887394336 14.6117714323462 3.0
vertex 6.4488887394336 14.6117714323462 0.0
endloop
endfacet
facet normal 0.965925826289066 -0.258819045102528 0.0
outer loop
vertex 47.5511112605665 15.3882285676538 0.0
vertex 47.5 15.0 3.0
vertex 47.5 15.0 0.0
endloop
endfacet
facet normal 0.991444861373804 -0.130526192220102 -0.0
outer loop
vertex 47.5 15.0 3.0
vertex 47.5511112605665 15.3882285676538 0.0
vertex 47.5511112605665 15.3882285676538 3.0
endloop
endfacet
facet normal 0.991444861373804 0.130526192220101 -0.0
outer loop
vertex 47.5 15.0 0.0
vertex 47.5511112605665 14.6117714323462 3.0
vertex 47.5511112605665 14.6117714323462 0.0
endloop
endfacet
facet normal 0.965925826289066 0.258819045102529 0.0
outer loop
vertex 47.5511112605665 14.6117714323462 3.0
vertex 47.5 15.0 0.0
vertex 47.5 15.0 3.0
endloop
endfacet
facet normal 0.965925826289066 0.258819045102529 0.0
outer loop
vertex 47.5511112605665 14.6117714323462 0.0
vertex 47.7009618943234 14.25 3.0
vertex 47.7009618943234 14.25 0.0
endloop
endfacet
facet normal 0.866025403784452 0.499999999999978 0.0
outer loop
vertex 47.7009618943234 14.25 3.0
vertex 47.5511112605665 14.6117714323462 0.0
vertex 47.5511112605665 14.6117714323462 3.0
endloop
endfacet
facet normal 0.866025403784452 0.499999999999978 0.0
outer loop
vertex 47.7009618943234 14.25 0.0
vertex 47.9393398282202 13.9393398282202 3.0
vertex 47.9393398282202 13.9393398282202 0.0
endloop
endfacet
facet normal 0.707106781186546 0.707106781186549 0.0
outer loop
vertex 47.9393398282202 13.9393398282202 3.0
vertex 47.7009618943234 14.25 0.0
vertex 47.7009618943234 14.25 3.0
endloop
endfacet
facet normal 0.707106781186546 0.707106781186549 0.0
outer loop
vertex 47.9393398282202 13.9393398282202 3.0
vertex 48.25 13.7009618943233 0.0
vertex 47.9393398282202 13.9393398282202 0.0
endloop
endfacet
facet normal 0.499999999999994 0.866025403784442 0.0
outer loop
vertex 48.25 13.7009618943233 0.0
vertex 47.9393398282202 13.9393398282202 3.0
vertex 48.25 13.7009618943233 3.0
endloop
endfacet
facet normal 0.499999999999994 0.866025403784442 0.0
outer loop
vertex 48.25 13.7009618943233 3.0
vertex 48.6117714323463 13.5511112605664 0.0
vertex 48.25 13.7009618943233 0.0
endloop
endfacet
facet normal 0.258819045102522 0.965925826289068 0.0
outer loop
vertex 48.6117714323463 13.5511112605664 0.0
vertex 48.25 13.7009618943233 3.0
vertex 48.6117714323463 13.5511112605664 3.0
endloop
endfacet
facet normal 0.258819045102522 0.965925826289068 0.0
outer loop
vertex 48.6117714323463 13.5511112605664 3.0
vertex 49.0000000000001 13.5 0.0
vertex 48.6117714323463 13.5511112605664 0.0
endloop
endfacet
facet normal 0.130526192220045 0.991444861373811 -0.0
outer loop
vertex 49.0000000000001 13.5 0.0
vertex 48.6117714323463 13.5511112605664 3.0
vertex 49.0000000000001 13.5 3.0
endloop
endfacet
facet normal -0.13052619222006 0.991444861373809 -0.0
outer loop
vertex 49.0000000000001 13.5 3.0
vertex 49.3882285676538 13.5511112605664 0.0
vertex 49.0000000000001 13.5 0.0
endloop
endfacet
facet normal -0.258819045102507 0.965925826289072 0.0
outer loop
vertex 49.3882285676538 13.5511112605664 0.0
vertex 49.0000000000001 13.5 3.0
vertex 49.3882285676538 13.5511112605664 3.0
endloop
endfacet
facet normal -0.258819045102507 0.965925826289072 0.0
outer loop
vertex 49.3882285676538 13.5511112605664 3.0
vertex 49.7500000000001 13.7009618943233 0.0
vertex 49.3882285676538 13.5511112605664 0.0
endloop
endfacet
facet normal -0.500000000000005 0.866025403784436 0.0
outer loop
vertex 49.7500000000001 13.7009618943233 0.0
vertex 49.3882285676538 13.5511112605664 3.0
vertex 49.7500000000001 13.7009618943233 3.0
endloop
endfacet
facet normal -0.500000000000005 0.866025403784436 0.0
outer loop
vertex 49.7500000000001 13.7009618943233 3.0
vertex 50.0606601717799 13.9393398282202 0.0
vertex 49.7500000000001 13.7009618943233 0.0
endloop
endfacet
facet normal -0.707106781186571 0.707106781186524 0.0
outer loop
vertex 50.0606601717799 13.9393398282202 0.0
vertex 49.7500000000001 13.7009618943233 3.0
vertex 50.0606601717799 13.9393398282202 3.0
endloop
endfacet
facet normal -0.866025403784425 0.500000000000024 0.0
outer loop
vertex 50.2990381056767 14.25 3.0
vertex 50.0606601717799 13.9393398282202 0.0
vertex 50.0606601717799 13.9393398282202 3.0
endloop
endfacet
facet normal -0.707106781186571 0.707106781186524 0.0
outer loop
vertex 50.0606601717799 13.9393398282202 0.0
vertex 50.2990381056767 14.25 3.0
vertex 50.2990381056767 14.25 0.0
endloop
endfacet
facet normal -0.965925826289067 0.258819045102525 0.0
outer loop
vertex 50.4488887394337 14.6117714323462 3.0
vertex 50.2990381056767 14.25 0.0
vertex 50.2990381056767 14.25 3.0
endloop
endfacet
facet normal -0.866025403784425 0.500000000000024 0.0
outer loop
vertex 50.2990381056767 14.25 0.0
vertex 50.4488887394337 14.6117714323462 3.0
vertex 50.4488887394337 14.6117714323462 0.0
endloop
endfacet
facet normal -0.991444861373819 0.130526192219988 0.0
outer loop
vertex 50.5 15.0 3.0
vertex 50.4488887394337 14.6117714323462 0.0
vertex 50.4488887394337 14.6117714323462 3.0
endloop
endfacet
facet normal -0.965925826289067 0.258819045102525 0.0
outer loop
vertex 50.4488887394337 14.6117714323462 0.0
vertex 50.5 15.0 3.0
vertex 50.5 15.0 0.0
endloop
endfacet
facet normal -0.965925826289067 -0.258819045102525 0.0
outer loop
vertex 50.4488887394337 15.3882285676538 3.0
vertex 50.5 15.0 0.0
vertex 50.5 15.0 3.0
endloop
endfacet
facet normal -0.991444861373819 -0.130526192219988 0.0
outer loop
vertex 50.5 15.0 0.0
vertex 50.4488887394337 15.3882285676538 3.0
vertex 50.4488887394337 15.3882285676538 0.0
endloop
endfacet
facet normal -0.866025403784425 -0.500000000000024 0.0
outer loop
vertex 50.2990381056767 15.75 3.0
vertex 50.4488887394337 15.3882285676538 0.0
vertex 50.4488887394337 15.3882285676538 3.0
endloop
endfacet
facet normal -0.965925826289067 -0.258819045102525 0.0
outer loop
vertex 50.4488887394337 15.3882285676538 0.0
vertex 50.2990381056767 15.75 3.0
vertex 50.2990381056767 15.75 0.0
endloop
endfacet
facet normal -0.707106781186546 -0.707106781186549 0.0
outer loop
vertex 50.0606601717799 16.0606601717798 3.0
vertex 50.2990381056767 15.75 0.0
vertex 50.2990381056767 15.75 3.0
endloop
endfacet
facet normal -0.866025403784425 -0.500000000000024 0.0
outer loop
vertex 50.2990381056767 15.75 0.0
vertex 50.0606601717799 16.0606601717798 3.0
vertex 50.0606601717799 16.0606601717798 0.0
endloop
endfacet
facet normal -0.707106781186546 -0.707106781186549 0.0
outer loop
vertex 50.0606601717799 16.0606601717798 3.0
vertex 49.75 16.2990381056767 0.0
vertex 50.0606601717799 16.0606601717798 0.0
endloop
endfacet
facet normal -0.499999999999994 -0.866025403784442 0.0
outer loop
vertex 49.75 16.2990381056767 0.0
vertex 50.0606601717799 16.0606601717798 3.0
vertex 49.75 16.2990381056767 3.0
endloop
endfacet
facet normal -0.499999999999994 -0.866025403784442 0.0
outer loop
vertex 49.75 16.2990381056767 3.0
vertex 49.3882285676538 16.4488887394336 0.0
vertex 49.75 16.2990381056767 0.0
endloop
endfacet
facet normal -0.258819045102529 -0.965925826289066 0.0
outer loop
vertex 49.3882285676538 16.4488887394336 0.0
vertex 49.75 16.2990381056767 3.0
vertex 49.3882285676538 16.4488887394336 3.0
endloop
endfacet
facet normal -0.258819045102529 -0.965925826289066 0.0
outer loop
vertex 49.3882285676538 16.4488887394336 3.0
vertex 49.0000000000001 16.5 0.0
vertex 49.3882285676538 16.4488887394336 0.0
endloop
endfacet
facet normal -0.13052619222006 -0.991444861373809 0.0
outer loop
vertex 49.0000000000001 16.5 0.0
vertex 49.3882285676538 16.4488887394336 3.0
vertex 49.0000000000001 16.5 3.0
endloop
endfacet
facet normal 0.130526192220045 -0.991444861373811 0.0
outer loop
vertex 49.0000000000001 16.5 3.0
vertex 48.6117714323463 16.4488887394336 0.0
vertex 49.0000000000001 16.5 0.0
endloop
endfacet
facet normal 0.258819045102522 -0.965925826289068 0.0
outer loop
vertex 48.6117714323463 16.4488887394336 0.0
vertex 49.0000000000001 16.5 3.0
vertex 48.6117714323463 16.4488887394336 3.0
endloop
endfacet
facet normal 0.258819045102522 -0.965925826289068 0.0
outer loop
vertex 48.6117714323463 16.4488887394336 3.0
vertex 48.25 16.2990381056767 0.0
vertex 48.6117714323463 16.4488887394336 0.0
endloop
endfacet
facet normal 0.499999999999994 -0.866025403784442 0.0
outer loop
vertex 48.25 16.2990381056767 0.0
vertex 48.6117714323463 16.4488887394336 3.0
vertex 48.25 16.2990381056767 3.0
endloop
endfacet
facet normal 0.499999999999994 -0.866025403784442 0.0
outer loop
vertex 48.25 16.2990381056767 3.0
vertex 47.9393398282202 16.0606601717798 0.0
vertex 48.25 16.2990381056767 0.0
endloop
endfacet
facet normal 0.707106781186546 -0.707106781186549 0.0
outer loop
vertex 47.9393398282202 16.0606601717798 0.0
vertex 48.25 16.2990381056767 3.0
vertex 47.9393398282202 16.0606601717798 3.0
endloop
endfacet
facet normal 0.707106781186546 -0.707106781186549 0.0
outer loop
vertex 47.9393398282202 16.0606601717798 0.0
vertex 47.7009618943234 15.75 3.0
vertex 47.7009618943234 15.75 0.0
endloop
endfacet
facet normal 0.866025403784452 -0.499999999999976 0.0
outer loop
vertex 47.7009618943234 15.75 3.0
vertex 47.9393398282202 16.0606601717798 0.0
vertex 47.9393398282202 16.0606601717798 3.0
endloop
endfacet
facet normal 0.866025403784452 -0.499999999999976 0.0
outer loop
vertex 47.7009618943234 15.75 0.0
vertex 47.5511112605665 15.3882285676538 3.0
vertex 47.5511112605665 15.3882285676538 0.0
endloop
endfacet
facet normal 0.965925826289066 -0.258819045102528 0.0
outer loop
vertex 47.5511112605665 15.3882285676538 3.0
vertex 47.7009618943234 15.75 0.0
vertex 47.7009618943234 15.75 3.0
endloop
endfacet
facet normal -0.0 -0.0 1.0
outer loop
vertex 48.9820948221372 25.9 3.0
vertex 10.0 30.0 3.0
vertex 10.0 25.9 3.0
endloop
endfacet
facet normal -0.0 -0.0 1.0
outer loop
vertex 10.0 30.0 3.0
vertex 48.9820948221372 25.9 3.0
vertex 48.9742851168992 30.0 3.0
endloop
endfacet
facet normal -0.0 -0.0 1.0
outer loop
vertex 49.0257148831009 -2.8199664825479e-15 3.0
vertex 10.0 4.1 3.0
vertex 10.0 -2.64371857738865e-16 3.0
endloop
endfacet
facet normal -0.0 -0.0 1.0
outer loop
vertex 10.0 4.1 3.0
vertex 49.0257148831009 -2.8199664825479e-15 3.0
vertex 49.0177636102383 4.17432127630334 3.0
endloop
endfacet
facet normal -0.0 -0.0 1.0
outer loop
vertex 49.0177636102383 4.17432127630334 4.0
vertex 10.0 6.9 4.0
vertex 10.0 4.1 4.0
endloop
endfacet
facet normal -0.0 -0.0 1.0
outer loop
vertex 10.0 6.9 4.0
vertex 49.0177636102383 4.17432127630334 4.0
vertex 49.0124301723538 6.97431111713802 4.0
endloop
endfacet
facet normal -1.0 0.0 0.0
outer loop
vertex 10.0 6.9 4.0
vertex 10.0 4.1 3.0
vertex 10.0 4.1 4.0
endloop
endfacet
facet normal -1.0 0.0 0.0
outer loop
vertex 10.0 4.1 3.0
vertex 10.0 6.9 4.0
vertex 10.0 6.9 3.0
endloop
endfacet
facet normal 0.00190480270003885 -0.999998185861691 0.0
outer loop
vertex 49.0177636102383 4.17432127630334 4.0
vertex 10.0 4.1 3.0
vertex 49.0177636102383 4.17432127630334 3.0
endloop
endfacet
facet normal 0.00190480270003885 -0.999998185861691 0.0
outer loop
vertex 10.0 4.1 3.0
vertex 49.0177636102383 4.17432127630334 4.0
vertex 10.0 4.1 4.0
endloop
endfacet
facet normal 0.999998185861692 0.00190480270002693 -0.0
outer loop
vertex 49.0124301723538 6.97431111713802 3.0
vertex 49.0177636102383 4.17432127630334 4.0
vertex 49.0177636102383 4.17432127630334 3.0
endloop
endfacet
facet normal 0.999998185861692 0.00190480270002693 -0.0
outer loop
vertex 49.0177636102383 4.17432127630334 4.0
vertex 49.0124301723538 6.97431111713802 3.0
vertex 49.0124301723538 6.97431111713802 4.0
endloop
endfacet
facet normal -0.00190480270003888 0.999998185861691 -0.0
outer loop
vertex 10.0 6.9 4.0
vertex 49.0124301723538 6.97431111713802 3.0
vertex 10.0 6.9 3.0
endloop
endfacet
facet normal -0.00190480270003888 0.999998185861691 -0.0
outer loop
vertex 49.0124301723538 6.97431111713802 3.0
vertex 10.0 6.9 4.0
vertex 49.0124301723538 6.97431111713802 4.0
endloop
endfacet
facet normal -0.0 -0.0 1.0
outer loop
vertex 48.9872868223269 23.1742632239301 4.0
vertex 10.0 25.9 4.0
vertex 10.0 23.1 4.0
endloop
endfacet
facet normal -0.0 -0.0 1.0
outer loop
vertex 10.0 25.9 4.0
vertex 48.9872868223269 23.1742632239301 4.0
vertex 48.9820948221372 25.9 4.0
endloop
endfacet
facet normal 0.999998185861691 0.00190480270003932 -0.0
outer loop
vertex 48.9820948221372 25.9 3.0
vertex 48.9872868223269 23.1742632239301 4.0
vertex 48.9872868223269 23.1742632239301 3.0
endloop
endfacet
facet normal 0.999998185861691 0.00190480270003932 -0.0
outer loop
vertex 48.9872868223269 23.1742632239301 4.0
vertex 48.9820948221372 25.9 3.0
vertex 48.9820948221372 25.9 4.0
endloop
endfacet
facet normal -0.0 1.0 -0.0
outer loop
vertex 10.0 25.9 4.0
vertex 48.9820948221372 25.9 3.0
vertex 10.0 25.9 3.0
endloop
endfacet
facet normal -0.0 1.0 -0.0
outer loop
vertex 48.9820948221372 25.9 3.0
vertex 10.0 25.9 4.0
vertex 48.9820948221372 25.9 4.0
endloop
endfacet
facet normal -1.0 0.0 0.0
outer loop
vertex 10.0 25.9 4.0
vertex 10.0 23.1 3.0
vertex 10.0 23.1 4.0
endloop
endfacet
facet normal -1.0 0.0 0.0
outer loop
vertex 10.0 23.1 3.0
vertex 10.0 25.9 4.0
vertex 10.0 25.9 3.0
endloop
endfacet
facet normal 0.00190480270003895 -0.999998185861691 0.0
outer loop
vertex 48.9872868223269 23.1742632239301 4.0
vertex 10.0 23.1 3.0
vertex 48.9872868223269 23.1742632239301 3.0
endloop
endfacet
facet normal 0.00190480270003895 -0.999998185861691 0.0
outer loop
vertex 10.0 23.1 3.0
vertex 48.9872868223269 23.1742632239301 4.0
vertex 10.0 23.1 4.0
endloop
endfacet
facet normal -0.0 -0.0 1.0
outer loop
vertex 10.0 -2.64371857738865e-16 3.0
vertex 5.0 13.5 3.0
vertex 5.0 -1.76247905159244e-16 3.0
endloop
endfacet
facet normal -0.0 -0.0 1.0
outer loop
vertex 5.0 13.5 3.0
vertex 10.0 -2.64371857738865e-16 3.0
vertex 5.38822856765378 13.5511112605664 3.0
endloop
endfacet
facet normal -0.0 -0.0 1.0
outer loop
vertex 5.38822856765378 13.5511112605664 3.0
vertex 10.0 -2.64371857738865e-16 3.0
vertex 5.75 13.7009618943233 3.0
endloop
endfacet
facet normal -0.0 -0.0 1.0
outer loop
vertex 5.75 13.7009618943233 3.0
vertex 10.0 -2.64371857738865e-16 3.0
vertex 6.06066017177983 13.9393398282202 3.0
endloop
endfacet
facet normal -0.0 -0.0 1.0
outer loop
vertex 6.06066017177983 13.9393398282202 3.0
vertex 10.0 -2.64371857738865e-16 3.0
vertex 6.29903810567665 14.25 3.0
endloop
endfacet
facet normal -0.0 -0.0 1.0
outer loop
vertex 6.29903810567665 14.25 3.0
vertex 10.0 -2.64371857738865e-16 3.0
vertex 6.4488887394336 14.6117714323462 3.0
endloop
endfacet
facet normal -0.0 -0.0 1.0
outer loop
vertex 6.4488887394336 14.6117714323462 3.0
vertex 10.0 -2.64371857738865e-16 3.0
vertex 6.5 15.0 3.0
endloop
endfacet
facet normal -0.0 -0.0 1.0
outer loop
vertex 6.5 15.0 3.0
vertex 10.0 -2.64371857738865e-16 3.0
vertex 10.0 15.0 3.0
endloop
endfacet
facet normal -0.0 -0.0 1.0
outer loop
vertex 10.0 15.0 3.0
vertex 10.0 -2.64371857738865e-16 3.0
vertex 10.0 4.1 3.0
endloop
endfacet
facet normal -0.0 -0.0 1.0
outer loop
vertex 10.0 15.0 3.0
vertex 10.0 4.1 3.0
vertex 10.0 6.9 3.0
endloop
endfacet
facet normal -0.0 -0.0 1.0
outer loop
vertex 47.5 15.0 3.0
vertex 10.0 23.1 3.0
vertex 10.0 15.0 3.0
endloop
endfacet
facet normal -0.0 -0.0 1.0
outer loop
vertex 10.0 23.1 3.0
vertex 47.5 15.0 3.0
vertex 47.5511112605665 15.3882285676538 3.0
endloop
endfacet
facet normal -0.0 -0.0 1.0
outer loop
vertex 10.0 23.1 3.0
vertex 47.5511112605665 15.3882285676538 3.0
vertex 48.9872868223269 23.1742632239301 3.0
endloop
endfacet
facet normal -0.0 -0.0 1.0
outer loop
vertex 48.9872868223269 23.1742632239301 3.0
vertex 47.5511112605665 15.3882285676538 3.0
vertex 47.7009618943234 15.75 3.0
endloop
endfacet
facet normal -0.0 -0.0 1.0
outer loop
vertex 48.9872868223269 23.1742632239301 3.0
vertex 47.7009618943234 15.75 3.0
vertex 47.9393398282202 16.0606601717798 3.0
endloop
endfacet
facet normal -0.0 -0.0 1.0
outer loop
vertex 48.9872868223269 23.1742632239301 3.0
vertex 47.9393398282202 16.0606601717798 3.0
vertex 48.25 16.2990381056767 3.0
endloop
endfacet
facet normal -0.0 -0.0 1.0
outer loop
vertex 48.9872868223269 23.1742632239301 3.0
vertex 48.25 16.2990381056767 3.0
vertex 48.6117714323463 16.4488887394336 3.0
endloop
endfacet
facet normal -0.0 -0.0 1.0
outer loop
vertex 48.9872868223269 23.1742632239301 3.0
vertex 48.6117714323463 16.4488887394336 3.0
vertex 49.0000000000001 16.5 3.0
endloop
endfacet
endsolid MountingPlateTemplate
